<?xml version="1.0" standalone="no"?>
<!DOCTYPE svg PUBLIC "-//W3C//DTD SVG 20010904//EN"
 "http://www.w3.org/TR/2001/REC-SVG-20010904/DTD/svg10.dtd">
<svg version="1.0" xmlns="http://www.w3.org/2000/svg"
 width="256.000000pt" height="256.000000pt" viewBox="0 0 256.000000 256.000000"
 preserveAspectRatio="xMidYMid meet">

<g transform="translate(0.000000,256.000000) scale(0.100000,-0.100000)"
fill="#000000" stroke="none">
<path d="M0 1280 l0 -1280 1280 0 1280 0 0 1280 0 1280 -1280 0 -1280 0 0
-1280z m1636 618 l354 -202 0 -411 0 -410 -59 -33 c-33 -17 -62 -32 -65 -32
-3 0 -6 181 -6 403 l0 402 -271 155 c-149 85 -280 159 -290 164 -14 7 -81 -27
-304 -154 l-285 -162 0 -332 1 -331 285 -163 286 -163 154 87 154 88 0 326 0
326 -154 88 -154 87 -151 -86 -151 -87 0 -172 0 -172 152 -86 c120 -69 155
-85 170 -77 16 9 18 25 18 179 l0 169 -67 37 c-116 64 -113 57 -43 98 33 20
66 36 73 36 7 0 47 -21 90 -46 l77 -45 0 -248 0 -249 -81 -48 -82 -48 -51 27
c-28 15 -127 71 -221 125 l-170 97 -3 250 -2 250 219 125 c120 68 222 124 226
123 3 0 103 -55 221 -123 l214 -122 0 -408 0 -407 -219 -125 -219 -125 -353
202 -354 202 -2 409 -3 409 353 202 c193 110 354 202 356 202 2 1 163 -90 357
-201z"/>
</g>
</svg>
